<?xml version="1.0" standalone="no"?>
<!DOCTYPE svg PUBLIC "-//W3C//DTD SVG 1.1//EN" "http://www.w3.org/Graphics/SVG/1.1/DTD/svg11.dtd">
<svg xmlns="http://www.w3.org/2000/svg" id="Camada_1" version="1.1" viewBox="0 0 311.32 294.03" width="311.32000732421875" height="294.0299987792969">
  <!-- Generator: Adobe Illustrator 29.8.2, SVG Export Plug-In . SVG Version: 2.1.1 Build 3)  -->
  <defs>
    <style>
      .st0 {
        fill-rule: evenodd;
      }

      .st0, .st1 {
        fill: #00aff2;
      }
    </style>
  </defs>
  <path class="st0" d="M112.76,135.28l9.05,5.35,33.9-48.25,33.7,48.25,9.05-5.5-42.75-61.23-42.95,61.38ZM94.65,124.44l9.05,5.65,52.01-74.51,51.81,74.36,9.2-5.5-61.01-87.49-61.06,87.49ZM76.39,113.75L155.77,0l79.22,113.75-9.05,5.5L155.71,18.63l-70.11,100.62-9.2-5.5Z"/>
  <path class="st1" d="M66.3,263.07v-16.24c0-.88.44-1.33,1.32-1.33h10.21c.87,0,1.32.44,1.32,1.33v44.92c0,.89-.44,1.33-1.32,1.33h-10.21c-.88,0-1.32-.44-1.32-1.33v-16.57h-11.66v16.57c0,.89-.44,1.33-1.32,1.33h-10.21c-.88,0-1.32-.44-1.32-1.33v-44.92c0-.88.44-1.33,1.32-1.33h10.21c.87,0,1.32.44,1.32,1.33v16.24h11.66ZM123.42,274.66c0,6.08-1.74,10.82-5.21,14.24-3.47,3.42-8.32,5.13-14.56,5.13s-11.09-1.71-14.56-5.13c-3.47-3.41-5.21-8.16-5.21-14.24v-10.84c0-6.08,1.74-10.8,5.21-14.17,3.47-3.37,8.32-5.06,14.56-5.06s11.09,1.69,14.56,5.06c3.47,3.37,5.21,8.1,5.21,14.17v10.84ZM97.07,274.32c0,4.92,2.19,7.38,6.59,7.38s6.59-2.46,6.59-7.38v-10.18c0-4.84-2.19-7.25-6.59-7.25s-6.59,2.42-6.59,7.25v10.18ZM123.75,246.84c0-.88.44-1.33,1.32-1.33h34.85c.88,0,1.32.44,1.32,1.33v9.45c0,.89-.44,1.33-1.32,1.33h-11v34.14c0,.89-.44,1.33-1.32,1.33h-10.21c-.88,0-1.32-.44-1.32-1.33v-34.14h-11c-.88,0-1.32-.44-1.32-1.33v-9.45ZM176.65,274.72v6.72h18.18c.88,0,1.32.44,1.32,1.33v8.99c0,.89-.44,1.33-1.32,1.33h-29.71c-.88,0-1.32-.44-1.32-1.33v-44.92c0-.88.44-1.33,1.32-1.33h28.59c.87,0,1.32.44,1.32,1.33v8.99c0,.89-.44,1.33-1.32,1.33h-17.06v6.19h14.49c.88,0,1.32.44,1.32,1.33v8.72c0,.89-.44,1.33-1.32,1.33h-14.49ZM231.39,291.76c0,.89-.44,1.33-1.32,1.33h-28.26c-.88,0-1.32-.44-1.32-1.33v-44.92c0-.88.44-1.33,1.32-1.33h10.21c.88,0,1.32.44,1.32,1.33v34.14h16.73c.87,0,1.32.44,1.32,1.33v9.45ZM269.67,278.51c0,4.57-1.68,8.3-5.04,11.18s-8.2,4.32-14.53,4.32c-3.42,0-6.52-.53-9.29-1.56-2.77-1.04-5.62-2.76-8.56-5.16-.66-.53-.74-1.15-.27-1.87l5.47-7.92c.53-.75,1.14-.84,1.85-.27,4.13,2.89,8.08,4.32,11.86,4.32,3.51,0,5.27-.88,5.27-2.66,0-1.64-2.19-2.91-6.59-3.79-1.93-.4-3.74-.92-5.43-1.56-1.69-.64-3.47-1.56-5.34-2.76-1.87-1.2-3.35-2.83-4.45-4.89-1.1-2.07-1.65-4.45-1.65-7.16,0-4.48,1.74-7.96,5.23-10.45,3.49-2.49,7.96-3.73,13.41-3.73,5.84,0,11.31,1.66,16.41,4.99.74.49.88,1.11.4,1.86l-5.21,7.92c-.53.71-1.14.84-1.84.4-3.16-1.91-6.57-2.86-10.21-2.86-3.38,0-5.07.75-5.07,2.27,0,.89.45,1.57,1.35,2.07.9.49,2.77,1.08,5.63,1.8,5.62,1.42,9.79,3.26,12.52,5.53,2.72,2.27,4.09,5.59,4.09,9.98h0Z"/>
  <path class="st1" d="M17.67,230.84c-.28,1.05-.97,1.58-2.08,1.58H1.64c-1.46,0-1.94-.7-1.46-2.11l24.15-71.66c.42-.98,1.07-1.47,1.97-1.47h15.82c.97,0,1.63.49,1.97,1.47l24.15,71.66c.55,1.4.07,2.11-1.46,2.11h-13.84c-1.11,0-1.84-.52-2.19-1.58l-3.85-12.84h-25.28l-3.96,12.84ZM34.01,175.59c-.35,1.13-1.51,5.14-3.48,12.05-1.97,6.91-3.53,12.15-4.63,15.73h16.76c-.2-.7-2.95-9.96-8.22-27.78h-.42ZM127.58,232.42h-15.3c-.97,0-1.67-.42-2.08-1.26l-14.47-23.89h-6.66v23.26c0,1.26-.62,1.89-1.87,1.89h-13.01c-1.25,0-1.87-.63-1.87-1.89v-71.45c0-1.26.62-1.89,1.87-1.89h25.3c8.75,0,15.54,2.27,20.4,6.79,4.86,4.52,7.28,10.71,7.28,18.57,0,5.4-1.28,10-3.85,13.79-2.57,3.79-6.28,6.6-11.14,8.42l16.65,25.47c.35.63.4,1.16.16,1.58-.25.42-.71.63-1.41.63h0ZM98.96,172.75h-9.89v19.78h9.89c3.81,0,6.61-.79,8.38-2.37,1.77-1.58,2.65-4.08,2.65-7.52s-.88-5.86-2.65-7.47c-1.77-1.62-4.56-2.42-8.38-2.42ZM190.45,232.42h-15.3c-.97,0-1.67-.42-2.08-1.26l-14.47-23.89h-6.66v23.26c0,1.26-.62,1.89-1.87,1.89h-13.01c-1.25,0-1.87-.63-1.87-1.89v-71.45c0-1.26.62-1.89,1.87-1.89h25.3c8.75,0,15.54,2.27,20.4,6.79,4.86,4.52,7.28,10.71,7.28,18.57,0,5.4-1.28,10-3.85,13.79-2.57,3.79-6.28,6.6-11.14,8.42l16.65,25.47c.35.63.4,1.16.16,1.58-.25.42-.71.63-1.41.63h0ZM161.83,172.75h-9.89v19.78h9.89c3.81,0,6.61-.79,8.38-2.37,1.77-1.58,2.65-4.08,2.65-7.52s-.88-5.86-2.65-7.47c-1.77-1.62-4.56-2.42-8.38-2.42ZM214.81,201.8v15.36h30.91c1.25,0,1.87.59,1.87,1.79v11.58c0,1.26-.62,1.89-1.87,1.89h-45.8c-1.25,0-1.87-.63-1.87-1.89v-71.45c0-1.26.62-1.89,1.87-1.89h44.13c1.25,0,1.87.63,1.87,1.89v11.58c0,1.19-.62,1.79-1.87,1.79h-29.25v14.42h25.81c1.25,0,1.87.59,1.87,1.79v11.36c0,1.19-.62,1.79-1.87,1.79h-25.81,0ZM287.98,230.52c0,1.26-.59,1.89-1.77,1.89h-13.22c-1.18,0-1.77-.63-1.77-1.89v-24.94l-23.11-46.2c-.35-.63-.38-1.16-.1-1.58.27-.42.77-.63,1.46-.63h14.57c.97,0,1.67.49,2.08,1.47l13.53,30.83,13.43-30.83c.35-.98,1.04-1.47,2.08-1.47h14.57c.69,0,1.16.21,1.41.63.24.42.23.95-.05,1.58l-23.11,46.3v24.83Z"/>
</svg>