<?xml version="1.0" standalone="no"?>
<!DOCTYPE svg PUBLIC "-//W3C//DTD SVG 1.1//EN" "http://www.w3.org/Graphics/SVG/1.1/DTD/svg11.dtd">
<svg xmlns="http://www.w3.org/2000/svg" xmlns:xlink="http://www.w3.org/1999/xlink" id="Camada_1" x="0px" y="0px" viewBox="0 0 612.9 167.5" style="enable-background:new 0 0 612.9 167.5;" xml:space="preserve" width="612.9000244140625" height="167.5"><style type="text/css">	.st0{enable-background:new    ;}	.st1{fill:#5F5232;}	.st2{fill:#AB9243;}	.st3{fill:#D8DDAE;}	.st4{fill:#FFFFFF;}</style><g class="st0">	<g class="st0">		<path class="st1" d="M156,137.3c-1.3-1.1-2-2.7-2-4.8s0.7-3.6,2-4.8s3.1-1.7,5.5-1.7s3.4,0.3,4.7,1v3.3h-0.1   c-0.3-1.2-0.9-2.1-1.6-2.6c-0.7-0.5-1.6-0.8-2.7-0.8s-2.6,0.5-3.4,1.5c-0.8,1-1.2,2.4-1.2,4.1s0.4,3.1,1.1,4.1   c0.8,1,1.9,1.6,3.2,1.6s1.8-0.2,2.4-0.5c0.6-0.3,1.1-0.8,1.5-1.5s0.6-1.6,0.8-2.7h0.1l0.2,3.1c-0.4,0.7-1.1,1.3-2,1.7   s-2,0.6-3.2,0.6c-2.3,0-4.1-0.6-5.5-1.7L156,137.3z"/>		<path class="st1" d="M187.6,138.6h0.2v0.2h-6.1v-0.2h0.2c0.3,0,0.5,0,0.6-0.2s0.2-0.3,0.2-0.5s0-0.3,0-0.4l-0.8-1.9h-4.4l-0.8,1.9   c0,0.1,0,0.3,0,0.4s0,0.3,0.2,0.5c0.1,0.2,0.3,0.2,0.6,0.2h0.2v0.2h-4.1v-0.2h0.2c0.3,0,0.6,0,0.9-0.3c0.3-0.2,0.5-0.4,0.7-0.8   l4.3-9.2c0.6-1.4,0.9-2.2,1-2.5h0.2l5.5,11.6c0.2,0.4,0.4,0.7,0.7,0.9s0.6,0.3,0.9,0.3H187.6z M177.7,134.7h3.7l-1.8-4.3   L177.7,134.7z"/>		<path class="st1" d="M194.6,137.1c0-0.9,0.2-1.7,0.6-2.3h0.2c0,0,0,0.2,0,0.3c0,0.8,0.3,1.6,0.9,2.2c0.6,0.6,1.4,1,2.5,1   s1.4-0.2,1.8-0.5c0.4-0.4,0.6-0.8,0.6-1.2s-0.1-0.8-0.4-1.1c-0.2-0.3-0.6-0.6-1.2-0.9l-2.9-1.9c-1.2-0.8-1.9-1.8-1.9-3   s0-0.3,0-0.4c0-1,0.5-1.7,1.1-2.3s1.5-0.8,2.4-0.8s1.9,0,2.9,0.2h1.1l-0.3,2.7h-0.2c0-0.6-0.2-1.2-0.7-1.5c-0.4-0.4-1-0.6-1.8-0.6   s-1.3,0.2-1.7,0.5s-0.6,0.7-0.6,1.2s0.2,0.8,0.6,1.1c0.2,0.1,0.4,0.3,0.7,0.5l3.3,2c1.1,0.7,1.7,1.6,1.7,2.9s-0.5,2.3-1.4,3   s-2.1,1-3.5,1s-1.7-0.1-2.3-0.3c-0.7-0.2-1.2-0.5-1.5-0.8c0-0.2-0.1-0.5-0.1-0.9L194.6,137.1z"/>		<path class="st1" d="M222.2,129.3v-0.2c0-0.6-0.2-1.1-0.5-1.4c-0.3-0.3-0.8-0.5-1.4-0.5h-2.4v10.3c0,0.3,0.1,0.6,0.4,0.8   s0.5,0.3,0.8,0.3h0.2v0.2h-5.7v-0.2h0.2c0.3,0,0.6-0.1,0.8-0.3s0.3-0.5,0.3-0.8v-10.3h-2.4c-0.6,0-1.1,0.2-1.4,0.5   c-0.3,0.3-0.5,0.8-0.5,1.4v0.2h-0.2V126c0.2,0,0.5,0.1,1,0.2c0.4,0,0.9,0.1,1.2,0.1h7.6c0.6,0,1.1,0,1.5-0.1   c0.4,0,0.6-0.1,0.7-0.2v3.3L222.2,129.3L222.2,129.3z"/>		<path class="st1" d="M229.7,138.8v-0.2h0.2c0.3,0,0.6-0.1,0.8-0.3s0.3-0.5,0.3-0.8v-9.8c0-0.3-0.1-0.6-0.3-0.8   c-0.2-0.2-0.5-0.3-0.8-0.3h-0.2v-0.2h5.8v0.2h-0.2c-0.3,0-0.6,0.1-0.8,0.3c-0.2,0.2-0.3,0.5-0.3,0.8V138h2.5   c0.9,0,1.6-0.3,2.2-0.8c0.6-0.5,1-1.2,1.3-2.2h0.2l-0.8,3.8H229.7L229.7,138.8z"/>		<path class="st1" d="M256.8,138.8H247v-0.2h0.2c0.3,0,0.6-0.1,0.8-0.3s0.3-0.5,0.3-0.8v-9.9c0-0.3-0.1-0.6-0.3-0.8   s-0.5-0.3-0.8-0.3H247v-0.2h7.3c0.4,0,0.8,0,1.2-0.1c0.4,0,0.8-0.1,0.9-0.2v3.3h-0.2v-0.2c0-0.6-0.2-1.1-0.5-1.4   c-0.3-0.3-0.8-0.5-1.4-0.5h-3v5h2.4c0.5,0,0.8-0.2,1.1-0.5s0.4-0.7,0.4-1.2l0,0c0-0.1,0.2-0.1,0.2-0.1v4.4h-0.2   c0-0.8-0.2-1.3-0.7-1.6c-0.2-0.2-0.5-0.2-0.8-0.2h-2.4v4.9h2.5c0.9,0,1.6-0.3,2.2-0.8s1-1.2,1.3-2.2h0.2l-0.8,3.8L256.8,138.8z"/>	</g>	<g class="st0">		<path class="st1" d="M282.1,134.8c-0.1,0-0.2,0-0.3,0c-0.7-0.2-1.2-0.4-1.4-0.6c-0.2-0.2-0.4-0.7-0.7-1.4c0-0.1,0-0.2,0-0.3   s0-0.2,0-0.3c0.2-0.7,0.5-1.2,0.7-1.4s0.7-0.4,1.4-0.7c0.1,0,0.2,0,0.3,0s0.2,0,0.3,0c0.7,0.2,1.2,0.5,1.4,0.7   c0.2,0.2,0.4,0.7,0.6,1.4c0,0.1,0,0.2,0,0.3s0,0.2,0,0.4c-0.2,0.7-0.4,1.1-0.6,1.3s-0.7,0.4-1.4,0.6   C282.3,134.8,282.2,134.8,282.1,134.8z"/>	</g>	<g class="st0">		<path class="st1" d="M331,138.6h0.3v0.2h-5.8v-0.2h0.3c0.3,0,0.5,0,0.6-0.3c0.1-0.2,0.2-0.4,0.1-0.6l-0.8-5.9l-3.3,5.2   c-0.5,0.8-0.7,1.5-0.7,2.1h-0.2l-4.8-7.2l-0.7,5.8c0,0.2,0,0.4,0.1,0.6c0.1,0.2,0.3,0.3,0.6,0.3h0.3v0.2h-3.9v-0.2h0.3   c0.3,0,0.6,0,0.9-0.3c0.3-0.2,0.4-0.5,0.4-0.8l1.6-11.4h0.2l5.9,8.8l5.5-8.8h0.2l1.7,11.5c0,0.3,0.2,0.6,0.5,0.7   c0.2,0.2,0.5,0.3,0.8,0.3H331z"/>		<path class="st1" d="M337.9,132.6c0-2,0.7-3.6,2-4.7c1.3-1.2,3.1-1.7,5.3-1.7s4,0.6,5.3,1.7c1.3,1.2,2,2.7,2,4.7s-0.7,3.6-2,4.7   c-1.3,1.2-3.1,1.8-5.3,1.8s-4-0.6-5.3-1.8S337.9,134.6,337.9,132.6z M341.1,132.6c0,1.7,0.4,3.1,1.1,4.1c0.8,1,1.8,1.5,3,1.5   s2.3-0.5,3-1.5c0.8-1,1.1-2.4,1.1-4.1s-0.4-3.1-1.1-4.1c-0.8-1-1.8-1.5-3-1.5s-2.3,0.5-3,1.5C341.4,129.5,341.1,130.9,341.1,132.6   z"/>		<path class="st1" d="M373.6,126.6h-0.3c-0.3,0-0.5,0-0.7,0.2s-0.3,0.4-0.3,0.6v6.9c0,1.5-0.5,2.7-1.4,3.5s-2.3,1.3-4.1,1.3   s-3.2-0.4-4.2-1.2s-1.5-2-1.5-3.5v-6.9c0-0.2,0-0.5-0.3-0.6c-0.2-0.2-0.4-0.2-0.7-0.2h-0.3v-0.2h5.4v0.2h-0.3   c-0.3,0-0.5,0-0.7,0.2s-0.3,0.4-0.3,0.6v6.7c0,1.3,0.3,2.3,0.9,3s1.4,1.1,2.5,1.1s1.9-0.3,2.5-1s0.9-1.6,0.9-2.8v-7   c0-0.3-0.1-0.5-0.3-0.6c-0.2-0.2-0.4-0.2-0.7-0.2h-0.3v-0.2h3.8v0.2L373.6,126.6z"/>		<path class="st1" d="M389.9,126.4h5.8v0.2h-0.4c-0.3,0-0.6,0-0.8,0.3c-0.2,0.2-0.3,0.4-0.3,0.7v9c0,0.9,0,1.6,0.2,2.1v0.3h-0.1   l-9.5-8.4v6.9c0,0.3,0.1,0.6,0.3,0.8c0.2,0.2,0.5,0.3,0.8,0.3h0.4v0.2h-5.8v-0.2h0.3c0.3,0,0.6,0,0.8-0.3c0.2-0.2,0.3-0.5,0.3-0.8   v-9.1c0-0.8,0-1.5-0.2-2v-0.3h0.1l9.5,8.3v-6.8c0-0.3-0.1-0.6-0.3-0.8c-0.2-0.2-0.5-0.3-0.8-0.3h-0.4v-0.2L389.9,126.4z"/>		<path class="st1" d="M414.4,129.3v-0.2c0-0.6-0.2-1.1-0.5-1.4s-0.8-0.5-1.4-0.5h-2.4v10.3c0,0.3,0.1,0.6,0.4,0.8s0.5,0.3,0.8,0.3   h0.2v0.2h-5.7v-0.2h0.2c0.3,0,0.6-0.1,0.8-0.3s0.3-0.5,0.3-0.8v-10.3h-2.4c-0.6,0-1.1,0.2-1.4,0.5s-0.5,0.8-0.5,1.4v0.2h-0.2V126   c0.2,0,0.5,0.1,1,0.2s0.9,0.1,1.2,0.1h7.6c0.6,0,1.1,0,1.5-0.1s0.6-0.1,0.7-0.2v3.3L414.4,129.3L414.4,129.3z"/>		<path class="st1" d="M433.5,138.6h0.2v0.2h-6.1v-0.2h0.2c0.3,0,0.5,0,0.6-0.2s0.2-0.3,0.2-0.5s0-0.3,0-0.4l-0.8-1.9h-4.4l-0.8,1.9   c0,0.1,0,0.3,0,0.4s0,0.3,0.2,0.5c0.1,0.2,0.3,0.2,0.6,0.2h0.2v0.2h-4.1v-0.2h0.2c0.3,0,0.6,0,0.9-0.3c0.3-0.2,0.5-0.4,0.7-0.8   l4.3-9.2c0.6-1.4,0.9-2.2,1-2.5h0.2l5.5,11.6c0.2,0.4,0.4,0.7,0.7,0.9c0.3,0.2,0.6,0.3,0.9,0.3H433.5z M423.6,134.7h3.7l-1.8-4.3   L423.6,134.7L423.6,134.7z"/>		<path class="st1" d="M440,138.6h0.2c0.3,0,0.6-0.1,0.8-0.3c0.2-0.2,0.4-0.5,0.4-0.8v-9.8c0-0.3-0.1-0.6-0.4-0.8   c-0.2-0.2-0.5-0.3-0.8-0.3H440v-0.2h5.9v0.2h-0.2c-0.3,0-0.6,0.1-0.8,0.3s-0.4,0.5-0.4,0.8v9.8c0,0.3,0.1,0.6,0.4,0.8   s0.5,0.3,0.8,0.3h0.2v0.2H440V138.6z"/>		<path class="st1" d="M462.6,126.4h5.8v0.2H468c-0.3,0-0.6,0-0.8,0.3c-0.2,0.2-0.3,0.4-0.3,0.7v9c0,0.9,0,1.6,0.2,2.1v0.3H467   l-9.5-8.4v6.9c0,0.3,0.1,0.6,0.3,0.8c0.2,0.2,0.5,0.3,0.8,0.3h0.4v0.2h-5.8v-0.2h0.3c0.3,0,0.6,0,0.8-0.3c0.2-0.2,0.3-0.5,0.3-0.8   v-9.1c0-0.8,0-1.5-0.2-2v-0.3h0.1l9.5,8.3v-6.8c0-0.3-0.1-0.6-0.3-0.8c-0.2-0.2-0.5-0.3-0.8-0.3h-0.4v-0.2L462.6,126.4z"/>	</g>	<g class="st0">		<path class="st1" d="M490.7,134.8c-0.1,0-0.2,0-0.3,0c-0.7-0.2-1.2-0.4-1.4-0.6c-0.2-0.2-0.4-0.7-0.7-1.4c0-0.1,0-0.2,0-0.3   s0-0.2,0-0.3c0.2-0.7,0.5-1.2,0.7-1.4s0.7-0.4,1.4-0.7c0.1,0,0.2,0,0.3,0s0.2,0,0.3,0c0.7,0.2,1.2,0.5,1.4,0.7s0.4,0.7,0.6,1.4   c0,0.1,0,0.2,0,0.3s0,0.2,0,0.4c-0.2,0.7-0.4,1.1-0.6,1.3s-0.7,0.4-1.4,0.6C490.9,134.8,490.8,134.8,490.7,134.8z"/>	</g>	<g class="st0">		<path class="st1" d="M532.2,138.6h0.2v0.2h-5.7v-0.2h0.2c0.3,0,0.6-0.1,0.8-0.3s0.3-0.5,0.3-0.8V133h-5.4v4.5   c0,0.3,0.1,0.6,0.4,0.8c0.2,0.2,0.5,0.3,0.8,0.3h0.2v0.2h-5.7v-0.2h0.2c0.3,0,0.6-0.1,0.8-0.3s0.3-0.5,0.3-0.8v-9.8   c0-0.3-0.1-0.6-0.3-0.8c-0.2-0.2-0.5-0.3-0.8-0.3h-0.2v-0.2h5.7v0.2h-0.2c-0.3,0-0.6,0.1-0.8,0.3c-0.2,0.2-0.3,0.5-0.4,0.8v4.5   h5.4v-4.5c0-0.4-0.2-0.7-0.6-1c-0.2,0-0.4-0.1-0.6-0.1h-0.2v-0.2h5.7v0.2h-0.2c-0.3,0-0.6,0.1-0.8,0.3s-0.3,0.5-0.4,0.8v9.8   c0,0.4,0.2,0.7,0.6,0.9c0.2,0,0.4,0.1,0.6,0.1L532.2,138.6z"/>		<path class="st1" d="M537.8,132.6c0-2,0.7-3.6,2-4.7c1.3-1.2,3.1-1.7,5.3-1.7s4,0.6,5.3,1.7c1.3,1.2,2,2.7,2,4.7s-0.7,3.6-2,4.7   c-1.3,1.2-3.1,1.8-5.3,1.8s-4-0.6-5.3-1.8S537.8,134.6,537.8,132.6z M541,132.6c0,1.7,0.4,3.1,1.1,4.1c0.8,1,1.8,1.5,3,1.5   s2.3-0.5,3-1.5c0.8-1,1.1-2.4,1.1-4.1s-0.4-3.1-1.1-4.1c-0.8-1-1.8-1.5-3-1.5s-2.3,0.5-3,1.5C541.3,129.5,541,130.9,541,132.6z"/>		<path class="st1" d="M571.4,126.6h-0.3c-0.3,0-0.5,0-0.7,0.2s-0.3,0.4-0.3,0.6v6.9c0,1.5-0.5,2.7-1.4,3.5s-2.3,1.3-4.1,1.3   s-3.2-0.4-4.2-1.2s-1.5-2-1.5-3.5v-6.9c0-0.2,0-0.5-0.3-0.6c-0.2-0.2-0.4-0.2-0.7-0.2h-0.3v-0.2h5.4v0.2h-0.3   c-0.3,0-0.5,0-0.7,0.2s-0.3,0.4-0.3,0.6v6.7c0,1.3,0.3,2.3,0.9,3c0.6,0.7,1.4,1.1,2.5,1.1s1.9-0.3,2.5-1s0.9-1.6,0.9-2.8v-7   c0-0.3-0.1-0.5-0.3-0.6c-0.2-0.2-0.4-0.2-0.7-0.2h-0.3v-0.2h3.8v0.2L571.4,126.6z"/>		<path class="st1" d="M576.9,137.1c0-0.9,0.2-1.7,0.6-2.3h0.2c0,0,0,0.2,0,0.3c0,0.8,0.3,1.6,0.9,2.2c0.6,0.6,1.4,1,2.5,1   s1.4-0.2,1.8-0.5c0.4-0.4,0.6-0.8,0.6-1.2s-0.1-0.8-0.4-1.1c-0.2-0.3-0.6-0.6-1.2-0.9l-2.9-1.9c-1.2-0.8-1.9-1.8-1.9-3   s0-0.3,0-0.4c0-1,0.5-1.7,1.1-2.3c0.7-0.6,1.5-0.8,2.4-0.8s1.9,0,2.9,0.2h1.1l-0.3,2.7h-0.2c0-0.6-0.2-1.2-0.7-1.5   c-0.4-0.4-1-0.6-1.8-0.6s-1.3,0.2-1.7,0.5s-0.6,0.7-0.6,1.2s0.2,0.8,0.6,1.1c0.2,0.1,0.4,0.3,0.7,0.5l3.3,2   c1.1,0.7,1.7,1.6,1.7,2.9s-0.5,2.3-1.4,3s-2.1,1-3.5,1s-1.7-0.1-2.3-0.3s-1.2-0.5-1.5-0.8c0-0.2-0.1-0.5-0.1-0.9L576.9,137.1z"/>		<path class="st1" d="M601.1,138.8h-9.8v-0.2h0.2c0.3,0,0.6-0.1,0.8-0.3s0.3-0.5,0.3-0.8v-9.9c0-0.3-0.1-0.6-0.3-0.8   s-0.5-0.3-0.8-0.3h-0.2v-0.2h7.3c0.4,0,0.8,0,1.2-0.1c0.4,0,0.8-0.1,0.9-0.2v3.3h-0.2v-0.2c0-0.6-0.2-1.1-0.5-1.4   c-0.3-0.3-0.8-0.5-1.4-0.5h-3v5h2.4c0.5,0,0.8-0.2,1.1-0.5s0.4-0.7,0.4-1.2l0,0c0-0.1,0.2-0.1,0.2-0.1v4.4h-0.2   c0-0.8-0.2-1.3-0.7-1.6c-0.2-0.2-0.5-0.2-0.8-0.2h-2.4v4.9h2.5c0.9,0,1.6-0.3,2.2-0.8c0.6-0.5,1-1.2,1.3-2.2h0.2l-0.8,3.8   L601.1,138.8z"/>	</g></g><path class="st2" d="M184.2,72.9c-1.5,0-2.9,0.4-4.4,1.2c-1.5,0.8-2.9,1.7-4.1,2.8c-1.3,1.1-2.3,2.3-3.1,3.7 c-0.8,1.4-1.2,2.6-1.2,3.8s0.3,2.2,0.9,3.2c0.6,1,1.2,1.9,1.7,2.9c0.6,0.9,1.1,1.8,1.6,2.9s0.7,2.2,0.7,3.5s-0.3,3-1,3.9 c-0.7,1-1.5,1.7-2.4,2.3c-0.9,0.5-1.9,0.9-3,1s-2,0.2-2.8,0.2c-1.8,0-3.4-0.6-4.8-1.9c-1.4-1.3-2.3-2.8-2.8-4.5 c0-0.4-0.2-0.6-0.4-0.6c-0.3,0.4-0.8,0.8-1.4,1.2c-0.6,0.4-1.2,0.8-1.7,1.1c0.6,4,3.8,6,9.7,6s2.3-0.2,3.9-0.5c1.6-0.3,3.3-1,4.9-2 c1.6-1,3-2.2,4.1-3.8c1.2-1.6,1.7-3.7,1.7-6.2s-0.3-2.5-1-3.6c-0.7-1.2-1.4-2.3-2.2-3.5c-0.9-1.3-1.5-2.3-2-3.1 c-0.5-0.8-0.7-1.5-0.7-2.3c0-1.5,0.7-2.7,2-3.5c1.4-0.8,2.7-1.2,4.1-1.2s3.1,0.6,3.6,1.9c0.2,0.4,0.4,0.3,0.7,0 c0.2-0.5,0.4-1,0.7-1.7c0.3-0.6,0.6-1.2,0.9-1.7c0-1-0.8-1.5-2.3-1.5C184.1,72.9,184.2,72.9,184.2,72.9z M330.2,74.3h-18 c1.9-3.4,3.9-6.8,6-10.2c2.1-3.4,4.2-6.6,6.5-9.7c0.5-0.8,1.2-1.4,2.2-2c1-0.5,1.8-0.9,2.6-1.1c0.4-0.2,0.5-0.4,0.4-0.7 c0-0.2-0.2-0.4-0.4-0.4c-1.5,0.5-3.1,1.1-5,1.9c-1.9,0.8-3.4,1.4-4.4,1.9c-0.9,1.5-1.9,3-3,4.7s-2.2,3.4-3.3,5.2 c-1.1,1.8-2.1,3.6-3.2,5.4s-2,3.4-2.9,4.9h-7.4c-0.9,0.8-1.5,1.5-1.9,2.2c0,0.4,0.2,0.6,0.7,0.6s1.3,0,3-0.2c1.7,0,3.1-0.3,4.3-0.4 c-3.1,5-5.5,9.3-7.2,12.9c-0.6,0.7-1.2,1.4-1.8,2.1c-2.1,2.3-4.4,4.4-6.8,6.3s-4.7,3.5-6.9,4.7c-2.2,1.3-4.2,1.9-5.8,1.9 s-1.8-0.2-2.3-0.7c-0.5-0.4-0.7-1.2-0.7-2.4s0.5-3.2,1.5-5.5s2.2-4.8,3.6-7.3c1.4-2.6,2.9-5.1,4.4-7.5s2.9-4.4,3.9-6 c0.5-0.8,0.7-1.4,0.7-1.7s-0.2-0.8-0.5-1.2c-0.3-0.4-0.7-0.7-1.1-0.7c-0.6,0-1.6,0.5-3.1,1.5s-3.2,2.3-5.2,3.8 c-2,1.6-4.1,3.2-6.2,5.1c-2.2,1.8-4.2,3.6-6,5.2c1.4-3,2.7-5.6,4.1-7.9s2.1-3.6,2.1-4c0-0.6-0.2-1.1-0.7-1.6s-1-0.7-1.6-0.7 s-1,0.2-1.3,0.7c-1.2,2.7-2.6,5.8-4.2,9.2c-0.5,1-0.9,1.9-1.4,2.8c-1,1.2-2.2,2.6-3.7,4.2c-1.9,2-4,4-6.3,5.8s-4.6,3.4-6.9,4.7 c-2.3,1.3-4.5,2-6.4,2s-1.9-0.3-2.5-0.8s-0.9-1.4-0.9-2.5s0.3-2.5,0.9-4.4c0.6-1.8,1.5-3.8,2.5-6c1.1-2.2,2.3-4.4,3.6-6.8 c1.3-2.3,2.6-4.5,3.8-6.4c0.2-0.2,0.4-0.5,0.5-0.9s0.2-0.7,0.2-0.9c0-0.3-0.2-0.4-0.7-0.4s-1.2,0.3-2.4,0.8s-2.1,1.2-2.5,2 c-0.8,1.1-1.8,2.7-3.1,4.8c-1.3,2.1-2.6,4.4-3.9,6.7c-0.2,0.4-0.4,0.7-0.6,1.1c-1.1,1.3-2.3,2.5-3.5,3.7c-2.6,2.6-5.1,4.9-7.5,6.9 s-4.7,3.5-6.8,4.6s-4,1.7-5.5,1.7s-2.3-0.3-2.7-0.9s-0.7-1.3-0.7-2.2c0-2.2,1-5.6,3.1-10.2s5.3-10.8,9.8-18.7c0.6,0,1.5,0,2.6,0 c1.2,0,2,0.2,2.6,0.4c0.3,0,0.4,0,0.4-0.4s-0.2-0.5-0.7-0.7c-0.5,0-1.2-0.2-2.2-0.3c-1,0-1.7,0-2.2,0c0.5-0.8,0.9-1.5,1.4-2.3 c0.4-0.7,0.9-1.3,1.4-1.8h-0.3l-4.1,1c-0.4,0.2-0.8,0.5-1.2,0.9s-0.8,1.1-1.3,2c-4.1,0-8,1.1-11.8,3.4s-7.1,5-10.1,8.1 s-5.3,6.4-7,9.8s-2.6,6.2-2.6,8.4s1,3.1,3.1,3.1s2.9-0.5,4.6-1.5c1.7-1,3.5-2.3,5.2-3.8s3.4-3.2,5.1-5c1.6-1.8,3.1-3.6,4.4-5.2 c-1.6,2.6-2.9,5.1-3.7,7.3c-0.8,2.3-1.2,4.1-1.2,5.4s0.4,2.7,1.2,3.6c0.8,1,2.1,1.5,4.1,1.5s4.7-0.7,7.3-2c2.7-1.4,5.3-3.1,8.1-5.4 c2.7-2.2,5.4-4.7,8.1-7.5c0.4-0.4,0.7-0.8,1.1-1.1c-0.5,0.9-0.9,1.8-1.3,2.7c-1,2.2-1.5,3.9-1.5,5.2s0.2,1.9,0.7,2.5 c0.4,0.6,1,1.1,1.6,1.5s1.3,0.6,2.1,0.7c0.8,0,1.5,0,2,0c1.6,0,3.5-0.3,5.5-1s4-1.6,6-2.9c2.5-1.6,5.3-3.8,8.3-6.5 c1.8-1.6,3.5-3.3,5.1-5.1c-0.6,1.3-1.3,2.6-1.9,3.8c-1.5,1.8-2.8,3.5-4,5c-1.2,1.5-1.8,2.7-1.8,3.6s0.2,1,0.5,2 c0.3,1.1,0.7,1.6,1.2,1.6s0.5-0.3,0.9-0.9c1.6-2.5,3-4.8,4.1-6.8s2.4-4.3,4-6.7c0.9-1.1,2-2.3,3.4-3.6c1.4-1.4,2.9-2.7,4.4-4 s3-2.5,4.4-3.7c1.5-1.2,2.7-2.1,3.8-2.8c0.5-0.3,0.8-0.3,0.9,0s0.1,0.8,0,1.2c-0.9,2-2,4.3-3.4,6.7c-1.4,2.4-2.8,4.8-4.1,7.1 c-1.3,2.3-2.4,4.5-3.4,6.6s-1.5,3.8-1.5,5.2s0.5,2.2,1.5,2.5s2,0.5,3.2,0.5c2.5,0,5.1-0.6,7.8-1.9c2.7-1.3,5.3-2.9,7.8-4.8 c2.6-1.9,5-4.1,7.3-6.6c0.2-0.2,0.3-0.4,0.5-0.6c-1.2,2.8-1.8,5-1.8,6.6s0.6,3.8,1.7,4.7c1.2,0.9,2.5,1.4,4.1,1.4 c2.9,0,5.8-0.5,8.6-1.4c2.8-1,5.9-2.5,9.1-4.6c0.5-0.2,0.6-0.5,0.3-0.8c-0.3-0.3-0.6-0.4-0.9,0c-2.2,1.4-4.3,2.4-6.3,3.3 c-2,0.8-3.8,1.2-5.3,1.2c-3.2,0-4.8-1.7-4.8-5.2s0.7-5.5,2.2-8.9s3.5-7.5,6.2-12.3c1.5,0,3.1-0.2,5.1-0.3c1.9,0,3.8-0.2,5.7-0.3 c1.8,0,3.5-0.2,5.1-0.2h3.5c0.2,0,0.3-0.2,0.3-0.4s-0.1-0.4-0.4-0.6l-0.3,0.3L330.2,74.3z M204.6,93.6c-1.6,1.7-3.2,3.3-4.7,4.6 c-1.6,1.3-2.9,2.3-4.1,3.1c-1.2,0.8-2.1,1.2-2.7,1.2s-0.9-0.4-0.9-1.2c0-1.5,0.7-3.7,2.1-6.8c1.4-3.1,3.3-6.2,5.6-9.4 c2.3-3.1,5-5.9,8-8.2c3-2.3,6.1-3.5,9.4-3.5h0.1c-1.2,2.2-2.5,4.5-3.9,7.1c-1.5,2.6-3,5.1-4.5,7.4C207.6,89.9,206.2,91.8,204.6,93.6 L204.6,93.6L204.6,93.6z M501.8,79.3c0.2,0.3,0.3,0.4,0.4,0.4c0.3,0,0.5,0,0.6-0.4c0.2-0.5,0.6-1.2,1.2-2.2s1.2-1.8,1.8-2.5 c0-0.5-0.3-0.9-0.9-1.4c-0.6-0.4-1.4-0.7-2.3-0.7s-2.5,0.3-4,1s-3,1.5-4.6,2.5s-3,2.1-4.4,3.3c-1.4,1.2-2.6,2.2-3.6,3.2 s-0.5,0.4-0.7,0.4s-0.1-0.2,0.1-0.7c0.2-0.3,0.5-0.8,0.9-1.5s0.8-1.4,1.2-2.1c0.4-0.7,0.8-1.4,1.2-2.1c0.3-0.7,0.5-1.2,0.5-1.5 c0-0.9-0.4-1.5-1.2-2c-0.8-0.5-1.3-0.7-1.5-0.7s-0.5,0.4-1,1.3c-0.4,0.9-1.1,2.2-2.2,4s-2.3,3.9-3.7,6.3c-0.4,0.7-0.8,1.4-1.3,2.2 l0,0v0.3c-1,1.7-2,3.4-3.1,5.3c-1.5,2.6-3,5.1-4.4,7.7c-0.9,1.2-1.8,2.4-2.8,3.5c-2.1,2.5-4.4,4.5-6.8,6.2c-2.4,1.6-4.9,2.5-7.5,2.5 s-2.8-0.5-3.6-1.6c-0.7-1.1-1.1-2.4-1.1-4.1s0.8-5.4,2.5-9.9c1.6-4.5,4.1-9.9,7.4-16.3s7.4-13.6,12.3-21.7s10.6-16.8,17.1-26.1 c2.6-3.8,5.5-7.3,8.6-10.5s6.1-5.7,8.8-7.4c1.4-0.9,2.9-1.5,4.5-2c1.6-0.4,3.3-0.7,4.9-0.7s2.1,0,2.7,0.2c0.6,0.1,1.2,0.3,1.6,0.5 c0.4,0.2,0.8,0.4,1.1,0.5s0.6,0.2,0.9,0.2c0.5,0,0.8-0.3,1-1c0.2-1.1,0.6-1.9,1.2-2.5c0.6-0.6,0.9-1.2,0.9-1.7s-0.4-0.9-1.1-1.2 c-0.7-0.3-1.7-0.4-2.8-0.4c-2.4,0-5.3,0.8-8.6,2.3c-4.4,2-8.6,5-12.7,9S491,25.8,486.9,31c-5,6.2-9.7,12.5-13.9,19 c-4.3,6.5-8.7,13.8-13.4,21.9c-6.5,1.2-11.9,3.6-16.3,7.3c-4.4,3.7-8.4,8.4-12,14.2c-0.3,0.5-0.7,1.1-0.9,1.6 c-0.9,0.8-1.8,1.6-2.8,2.4c-2.4,1.9-4.7,3.5-6.9,4.7c-2.2,1.3-4.2,1.9-5.8,1.9s-1.8-0.2-2.3-0.7c-0.5-0.4-0.7-1.2-0.7-2.4 s0.5-3.2,1.5-5.5s2.2-4.8,3.6-7.3c1.4-2.6,2.9-5.1,4.4-7.5s2.9-4.4,3.9-6c0.5-0.8,0.7-1.4,0.7-1.7s-0.2-0.8-0.5-1.2 c-0.3-0.4-0.7-0.7-1.1-0.7c-0.6,0-1.6,0.5-3.1,1.5s-3.2,2.3-5.2,3.8c-2,1.6-4.1,3.2-6.2,5.1c-2.2,1.8-4.2,3.6-6,5.2 c1.4-3,2.7-5.6,4.1-7.9s2.1-3.6,2.1-4c0-0.6-0.2-1.1-0.7-1.6s-1-0.7-1.6-0.7s-1,0.2-1.3,0.7c-1.2,2.7-2.6,5.8-4.2,9.2 c-0.6,1.3-1.2,2.6-1.8,3.8c-1.7,2-3.4,3.9-5.2,5.7c-2.6,2.6-5.1,4.9-7.5,6.9s-4.7,3.5-6.8,4.6c-2.1,1.1-4,1.7-5.5,1.7 s-2.3-0.3-2.7-0.9c-0.4-0.6-0.7-1.3-0.7-2.2c0-2.2,1-5.6,3.1-10.2s5.3-10.8,9.8-18.7c0.6,0,1.5,0,2.6,0c1.2,0,2,0.2,2.6,0.4 c0.3,0,0.4,0,0.4-0.4s-0.2-0.5-0.7-0.7c-0.5,0-1.2-0.2-2.2-0.3c-1,0-1.7,0-2.2,0c0.5-0.8,0.9-1.5,1.4-2.3c0.4-0.7,0.9-1.3,1.4-1.8 H388l-4.1,1c-0.4,0.2-0.8,0.5-1.2,0.9c-0.4,0.4-0.8,1.1-1.3,2c-4.1,0-8,1.1-11.8,3.4s-7.1,5-10.1,8.1s-5.3,6.4-7,9.8 s-2.6,6.2-2.6,8.4s1,3.1,3.1,3.1s2.9-0.5,4.6-1.5s3.5-2.3,5.2-3.8s3.4-3.2,5.1-5c1.6-1.8,3.1-3.6,4.4-5.2c-1.6,2.6-2.9,5.1-3.7,7.3 c-0.8,2.3-1.2,4.1-1.2,5.4s0.4,2.7,1.2,3.6c0.8,1,2.1,1.5,4.1,1.5s4.7-0.7,7.3-2c2.7-1.4,5.3-3.1,8.1-5.4c2.7-2.2,5.4-4.7,8.1-7.5 c1-1,1.9-2,2.9-3.1l-1.5,3c-1.4,1.8-2.8,3.5-4,5s-1.8,2.7-1.8,3.6s0.2,1,0.5,2c0.3,1.1,0.7,1.6,1.2,1.6s0.5-0.3,0.9-0.9 c1.6-2.5,3-4.8,4.1-6.8s2.4-4.3,4-6.7c0.9-1.1,2-2.3,3.4-3.6c1.4-1.4,2.9-2.7,4.4-4s3-2.5,4.4-3.7c1.5-1.2,2.7-2.1,3.8-2.8 c0.5-0.3,0.8-0.3,0.9,0s0.1,0.8,0,1.2c-0.9,2-2,4.3-3.4,6.7c-1.4,2.4-2.8,4.8-4.1,7.1c-1.3,2.3-2.4,4.5-3.4,6.6s-1.5,3.8-1.5,5.2 s0.5,2.2,1.5,2.5s2,0.5,3.2,0.5c2.5,0,5.1-0.6,7.8-1.9c2.7-1.3,5.3-2.9,7.8-4.8c0.8-0.6,1.6-1.2,2.3-1.9V97 c-0.5,1.4-0.7,2.5-0.7,3.4s0.2,2.1,0.7,2.8c0.5,0.7,1.4,1.1,2.8,1.1s1.9-0.3,3-0.8s2.4-1.4,4-2.7c1.5-1.3,3.3-3,5.4-5.2 c2-2.2,4.4-5,7.1-8.3c-1.9,3.9-3.4,7.1-4.3,9.8c-0.9,2.7-1.4,5.2-1.4,7.5s0.6,4,1.9,5.4s3.2,2.1,5.8,2.1s4.7-0.7,7-2 c2.4-1.4,4.6-3.2,6.8-5.6c0.7-0.8,1.4-1.6,2.1-2.5c0,0.3,0.4,0.7,0.9,1.1c0.6,0.6,1,0.9,1.2,0.9c0.5,0,0.8,0,0.9-0.4 c1.4-2.1,2.6-4.2,3.8-6.3c1.2-2.1,2.4-4.1,3.6-6.1c1.3-2,2.6-3.9,4-5.7c1.4-1.8,3-3.5,4.9-5.1c1.2-1.1,2.5-2,4.1-2.9 c1.5-0.9,3-1.3,4.2-1.3s1.9,0,2.5,0.4s1,0.6,1.4,0.9c0.3,0.3,0.6,0.7,0.8,0.9L501.8,79.3L501.8,79.3z M368,93.6 c-1.6,1.7-3.2,3.3-4.7,4.6c-1.5,1.3-2.9,2.3-4.1,3.1c-1.2,0.8-2.1,1.2-2.7,1.2s-0.9-0.4-0.9-1.2c0-1.5,0.7-3.7,2.1-6.8 c1.4-3.1,3.3-6.2,5.6-9.4c2.3-3.1,5-5.9,8-8.2c3-2.3,6.1-3.5,9.4-3.5h0.1c-1.2,2.2-2.5,4.5-3.9,7.1c-1.5,2.6-3,5.1-4.5,7.4 C371,89.9,369.6,91.8,368,93.6z M445.7,93.5c-2.2,2.5-4.2,4.4-6,5.9s-3,2.2-3.7,2.2s-0.5,0-0.9-0.3c-0.4-0.2-0.6-0.5-0.6-1 c0-1.5,0.8-3.9,2.3-7.2c1.5-3.2,4.2-7.1,7.8-11.7c1.5-1.9,3.3-3.6,5.3-4.9s4.8-2,8.5-2.1c-1.7,3.7-3.8,7.2-6.1,10.5 c-2.3,3.3-4.6,6.2-6.8,8.6H445.7L445.7,93.5z M586.8,76c2-0.3,3.9-0.6,5.8-0.9c1.9-0.3,3.5-0.7,4.7-1.1c0.7-0.2,0.9-0.4,0.8-0.7 c0-0.3-0.4-0.4-0.8-0.3c-1.2,0.4-3.2,0.8-6.1,1.2c-2.9,0.4-5.8,0.7-8.6,0.7s-4.1,0-5.4-0.4c-1.3-0.2-2.2-0.5-2.8-0.7s-1-0.5-1.2-0.7 s-0.4-0.4-0.6-0.4c-0.4,0-1,0.2-1.9,0.7c-0.9,0.4-1.6,0.7-2.2,0.7c-0.5,0.2-0.5,0.5,0,0.9c1.5,0.2,2.4,1,2.7,2.5 c0.2,1.5,0.4,3.3,0.4,5.7s-0.3,5.4-0.9,8.3c-0.6,2.9-1.4,5.6-2.5,8s-2.5,4.4-4.3,6c-1.7,1.6-3.8,2.4-6.1,2.4s-2.8-0.3-3.8-1 s-1.7-1.6-2.3-2.6c-0.6-1.1-1-2.3-1.2-3.6c-0.2-1.4-0.3-2.7-0.3-4.1c3.1-2.5,5.6-4.9,7.4-7.2c1.8-2.3,3.3-4.4,4.4-6.2 c1.1-1.9,1.8-3.5,2.1-4.9s0.5-2.3,0.5-2.8s0-0.7-0.2-1.2c0-0.5-0.6-0.8-1.4-0.8c-1.5,0-2.9,0.5-4.1,1.6c-1.2,1.1-2,1.9-2.5,2.5 c-2.4,2.9-4.6,6.2-6.4,9.8c-1.8,3.6-3.2,7.3-4.1,11.1c-2.5,1.6-4.5,2.7-6,3.2s-2.5,0.7-3,0.7s-1.2-0.2-1.6-0.7 c-0.4-0.5-0.6-1-0.6-1.6c0-1.2,0.3-2.8,1-4.8s1.6-4.2,2.8-6.5s2.4-4.6,3.8-6.8c1.4-2.3,2.8-4.2,4.3-5.7c0.9-0.9,1.6-1.4,2.1-1.6 s0.8-0.4,0.8-0.6c0-0.3-0.2-0.4-0.6-0.4c-0.6,0-1.4,0.3-2.3,0.5c-1,0.2-1.8,0.5-2.6,0.7c-0.6,0.2-1.1,0.5-1.5,0.9s-0.8,0.8-1.1,1.2 c-0.7,0.9-1.7,2.3-3.1,4.1c-1.4,1.9-2.7,4-4.1,6.2c-0.9,1.4-1.7,2.9-2.4,4.3c-0.2,0.2-0.3,0.3-0.5,0.5c-1.9,1.9-3.9,3.6-6.2,5.2 c-2.2,1.6-4.5,2.9-6.9,4s-4.7,1.6-6.9,1.6c-3.6,0-5.4-2-5.4-6s0.3-3.8,0.9-5.7c0.6-1.9,1.1-3.3,1.6-4.1c3.1,0,5.8-0.4,8-1.2 c2.2-0.8,4.1-1.8,5.5-3c1.5-1.2,2.5-2.5,3.3-3.8c0.7-1.4,1.1-2.6,1.1-3.8s-0.3-1.4-0.8-1.9s-1.5-0.7-2.8-0.7c-2.4,0-5,0.9-7.6,2.7 c-2.7,1.8-5.1,4-7.3,6.7c-2.2,2.7-4,5.6-5.4,8.7s-2.1,6.1-2.1,8.8c0,4.1,2.3,6.1,6.8,6.1s5.6-0.6,8.5-1.7s5.6-2.6,8.3-4.4 c2.5-1.6,4.7-3.5,6.9-5.5l0,0c-1,2.3-1.5,4.3-1.5,6s0.4,2.5,1.1,3.3c0.7,0.7,1.7,1.1,2.8,1.1c2.1,0,4.3-0.5,6.5-1.6s4.3-2.1,6.1-3.2 c-0.2,1-0.3,2-0.3,3.1c0,2.5,0.7,4.5,2.2,6.1c1.5,1.5,3.4,2.3,6,2.3s4.1-0.4,5.7-1.2c1.6-0.8,3.2-1.9,4.9-3.3 c1.4-1.2,2.7-2.7,4.1-4.7c1.4-2,2.6-4.2,3.7-6.7c1.1-2.5,2-5.1,2.8-7.8c0.7-2.8,1.1-5.4,1.1-8.1s0-0.9,0.2-1.3 c0-0.4,0.5-0.6,0.9-0.7c1.1,0,2.5-0.2,4.3-0.4c1.8-0.2,3.7-0.4,5.7-0.7l-0.2-0.3L586.8,76z M552.2,86.7c0.9-2.4,1.8-4.3,2.7-5.9 c0.9-1.5,1.8-2.7,2.7-3.5s1.5-1.2,2-1.2s0.9,0.3,1.1,0.9c0,0.6,0.2,1,0.2,1.2c0,2-0.8,4.6-2.5,7.6c-1.6,3-4.4,6.1-8.3,9.2 C550.6,91.8,551.3,89,552.2,86.7L552.2,86.7L552.2,86.7z M511.3,81.5c0.9-1.4,1.8-2.6,2.8-3.8c1-1.2,2-2.1,3-2.8c1-0.7,2-1.1,3-1.1 s1.9,0.6,1.9,1.9c0,2.7-1.1,5.1-3.2,7c-2.1,2-4.6,3-7.4,3s-0.7,0-1.2,0s-0.8,0-1-0.2c0.6-1.3,1.3-2.6,2.2-3.9L511.3,81.5L511.3,81.5 z M605.2,72.9c-1.5,0-2.9,0.4-4.4,1.2c-1.5,0.8-2.9,1.7-4.1,2.8c-1.3,1.1-2.3,2.3-3.1,3.7c-0.8,1.4-1.2,2.6-1.2,3.8s0.3,2.2,0.9,3.2 c0.6,1,1.2,1.9,1.7,2.9c0.6,0.9,1.1,1.8,1.6,2.9s0.7,2.2,0.7,3.5s-0.3,3-1,3.9c-0.7,1-1.5,1.7-2.4,2.3c-0.9,0.5-1.9,0.9-3,1 s-2,0.2-2.8,0.2c-1.8,0-3.4-0.6-4.8-1.9c-1.4-1.3-2.3-2.8-2.8-4.5c0-0.4-0.2-0.6-0.4-0.6c-0.3,0.4-0.8,0.8-1.4,1.2 c-0.6,0.4-1.2,0.8-1.7,1.1c0.6,4,3.8,6,9.7,6s2.3-0.2,3.9-0.5c1.6-0.3,3.3-1,4.9-2c1.6-1,3-2.2,4.1-3.8c1.2-1.6,1.7-3.7,1.7-6.2 s-0.3-2.5-1-3.6c-0.7-1.2-1.4-2.3-2.2-3.5c-0.9-1.3-1.6-2.3-2-3.1c-0.5-0.8-0.7-1.5-0.7-2.3c0-1.5,0.7-2.7,2-3.5 c1.4-0.8,2.7-1.2,4.1-1.2s3,0.6,3.6,1.9c0.2,0.4,0.4,0.3,0.7,0c0.2-0.5,0.4-1,0.7-1.7c0.3-0.6,0.6-1.2,0.9-1.7 C607.4,73.4,606.6,72.9,605.2,72.9L605.2,72.9L605.2,72.9z M249.6,65c0.2,0.2,0.4,0.4,0.7,0.4c0.7,0,1.5-0.2,2.3-0.5 c0.8-0.4,1.2-0.7,1.2-1c0-2.9-0.2-4.6-0.7-5c-0.2,0-0.4-0.2-0.5-0.2c-0.3,0-0.6,0-1,0.2c-0.4,0-0.8,0.2-1.2,0.4s-0.7,0.3-1,0.5 s-0.5,0.4-0.5,0.5c-0.2,0.2-0.2,1,0,2.5c0.2,1.3,0.4,2,0.6,2.3l0,0L249.6,65z"/><g>	<path class="st1" d="M7.3,150.7c-1.6-0.7-2.7-1.8-3.3-3.2s-0.5-2.9,0.3-4.5c0.7-1.6,1.8-2.6,3.2-3.1s3-0.3,4.7,0.4  c0.8,0.4,1.5,0.8,2.1,1.2c0.6,0.5,1.1,0.9,1.5,1.3l-1.1,2.5h-0.1c0.2-1.1,0-2-0.4-2.7s-1-1.2-1.9-1.6c-1.2-0.5-2.2-0.5-3.2,0  s-1.8,1.5-2.5,3c-0.7,1.4-0.9,2.7-0.7,3.8c0.2,1.1,0.8,1.8,1.9,2.3c0.8,0.3,1.5,0.4,2.2,0.2c0.3-0.1,0.6-0.3,0.9-0.5l1-2.2  c0-0.2,0.1-0.4,0-0.6c0-0.2-0.2-0.3-0.5-0.4h-0.2v-0.2l4,1.8l0,0c0,0.1-0.2,0-0.2,0c-0.2-0.1-0.4-0.1-0.6,0c-0.2,0-0.3,0.2-0.4,0.4  l-1.1,2.4c-0.6,0.3-1.4,0.5-2.4,0.4c-1,0-2.1-0.3-3.2-0.8l0,0V150.7z"/>	<path class="st1" d="M23.2,145.7l-0.6-0.2l0,0l-3,8.7v0.8c0.1,0.2,0.3,0.4,0.6,0.5h0.2v0.2l-4.5-1.6l0,0c0-0.1,0.2,0,0.2,0  c0.4,0.1,0.7,0,1-0.2c0.1-0.1,0.2-0.3,0.3-0.4l2.8-8.3v-0.8c-0.1-0.2-0.3-0.4-0.6-0.5h-0.2v-0.2l5.1,1.8c1,0.3,1.7,0.8,2.2,1.5  c0.3,0.3,0.4,0.7,0.5,1.1c0,0.4,0,1-0.2,1.6s-0.6,1.1-1.2,1.5s-1.3,0.5-2.1,0.3c0.5,0.4,0.9,1,1.1,1.8c0.5,2.1,0.9,3.4,1.3,3.9  c0.2,0.2,0.5,0.4,0.9,0.6l0,0c0,0.1-1.5-0.4-1.5-0.4c-0.9-0.3-1.5-0.7-2-1.1c-0.5-0.4-0.8-1-0.9-1.7c0-0.4-0.2-1.4-0.4-3  c0-0.7-0.3-1.2-0.7-1.3l0,0c0-0.1,0.5,0,0.5,0c0.4,0.2,0.9,0.2,1.3,0s0.8-0.5,1.1-1.1c0.1-0.2,0.2-0.4,0.2-0.5  c0.3-0.8,0.3-1.5,0.1-1.9c-0.2-0.5-0.6-0.8-1.1-1C23.6,145.8,23.4,145.8,23.2,145.7L23.2,145.7L23.2,145.7z"/>	<path class="st1" d="M39.5,160.8L39.5,160.8v0.2l-4.9-1.2v-0.2h0.7c0-0.1,0.2-0.2,0.3-0.4v-0.4l-0.3-2.1l-3.6-0.9l-1.3,1.7  c0,0.1-0.1,0.2-0.2,0.4v0.4c0,0.2,0.2,0.3,0.5,0.3h0.1v0.2l-3.3-0.8v-0.2h1c0.3,0,0.5-0.3,0.7-0.5l5.5-7.2c0.7-0.9,1.1-1.5,1.2-1.8  l0,0l2.2,11.1c0,0.3,0.2,0.6,0.4,0.8s0.4,0.3,0.7,0.4v0.2H39.5z M32.2,155.4l3.1,0.7l-0.6-4.1L32.2,155.4L32.2,155.4L32.2,155.4z"/>	<path class="st1" d="M56.2,163.1h0.3v0.2l-4.7-0.6l0,0c0-0.1,0.2-0.1,0.2-0.1c0.2,0,0.3,0,0.5-0.2c0-0.1,0.2-0.3,0.2-0.4v-5.8  l-3.5,4.7c-0.5,0.6-0.7,1.2-0.8,1.7h-0.2l-3.2-7.3l-1.3,5.6v0.5c0,0.2,0.2,0.2,0.4,0.3h0.2v0.2l-3.3-0.4v-0.2h0.3  c0.3,0,0.6,0,0.8-0.2s0.4-0.4,0.5-0.7l2.6-9.9l0,0l3.8,8.6l5.7-7.4l0,0v10.2c0,0.3,0,0.6,0.3,0.8s0.4,0.3,0.7,0.4H56L56.2,163.1z"/>	<path class="st1" d="M70.3,163.4L70.3,163.4v0.2h-5v-0.2l0,0c0.2,0,0.4,0,0.5-0.2c0-0.1,0.2-0.3,0.2-0.4v-0.4l-0.7-2h-3.7l-0.8,1.9  v0.4c0,0.1,0,0.3,0.2,0.4c0,0.1,0.3,0.2,0.5,0.2l0,0v0.2h-3.4v-0.2l0,0c0.2,0,0.5,0,0.7-0.2s0.4-0.4,0.6-0.7l3.8-8.2  c0.5-1,0.8-1.7,0.8-2.1l0,0l4.5,10.4c0.2,0.3,0.3,0.5,0.6,0.7c0.2,0.2,0.5,0.2,0.7,0.2l0,0L70.3,163.4z M62,159.7h3.2l-1.5-3.9  C63.7,155.8,62,159.7,62,159.7z"/>	<path class="st1" d="M82.1,153.1c1.2,0.9,1.8,2.2,2,3.9s-0.3,3.1-1.3,4.2c-1,1.1-2.4,1.7-4.3,1.9l-5.7,0.5v-0.2H73  c0.3,0,0.5-0.1,0.7-0.4c0.2-0.2,0.3-0.5,0.2-0.7l-0.8-8.8c0-0.3,0-0.5-0.4-0.6s-0.5-0.2-0.7-0.2h-0.2c0-0.1,5.7-0.6,5.7-0.6  c1.9-0.2,3.4,0.2,4.5,1.1L82.1,153.1L82.1,153.1z M78.3,162.3c0.8,0,1.4-0.3,1.9-0.7s0.9-1,1.1-1.8s0.3-1.6,0.2-2.4  c0-0.9-0.2-1.6-0.4-2.2c-0.2-0.6-0.5-1.1-0.9-1.5c-0.7-0.8-1.7-1.2-2.8-1.1l-1.9,0.2l0.8,9.7l1.9-0.2  C78.2,162.3,78.3,162.3,78.3,162.3z"/>	<path class="st1" d="M88.2,152.1c0.9-1.2,2.3-2,4.1-2.4c1.9-0.4,3.4-0.2,4.7,0.6c1.3,0.8,2.1,2,2.5,3.8c0.4,1.7,0,3.2-0.8,4.4  c-0.9,1.2-2.3,2-4.1,2.4c-1.9,0.4-3.4,0.2-4.7-0.6c-1.3-0.8-2.1-2-2.5-3.8C87,154.8,87.4,153.3,88.2,152.1z M91.6,159.4  c0.8,0.8,1.8,1,2.9,0.8s1.9-0.8,2.3-1.9c0.5-1,0.5-2.3,0.2-3.8s-0.9-2.7-1.7-3.4c-0.8-0.8-1.8-1-2.9-0.8s-1.9,0.8-2.3,1.9  s-0.5,2.3-0.2,3.8S90.8,158.7,91.6,159.4z"/>	<path class="st1" d="M102.7,154v-0.5l4.5-1.3l0.3,0.5v0.6l-4.5,1.3l-0.3-0.5l0,0V154z"/>	<path class="st1" d="M112.3,144.8l-0.6,0.2l0,0l3.3,8.6c0,0.3,0.3,0.4,0.5,0.5c0.3,0.1,0.5,0.1,0.8,0h0.2l-4.5,1.7l0,0  c0-0.1,0.2-0.2,0.2-0.2c0.4-0.1,0.6-0.4,0.6-0.8v-0.5l-3.1-8.2c0-0.3-0.3-0.4-0.5-0.5c-0.3-0.1-0.5-0.1-0.8,0h-0.2l5.1-1.9  c1-0.4,1.8-0.5,2.7-0.3c0.4,0,0.8,0.3,1.1,0.6c0.3,0.3,0.6,0.7,0.8,1.3s0.2,1.2,0,2c-0.2,0.7-0.7,1.3-1.4,1.6c0.6,0,1.3,0.2,2,0.7  c1.7,1.3,2.9,2,3.5,2.1c0.3,0,0.7,0,1.1-0.1l0,0c0,0.1-1.4,0.7-1.4,0.7c-0.9,0.3-1.6,0.5-2.3,0.5s-1.2-0.2-1.8-0.7  c-0.3-0.3-1-0.9-2.2-2.1c-0.5-0.5-1-0.7-1.4-0.6l0,0c0-0.1,0.5-0.3,0.5-0.3c0.4-0.2,0.8-0.4,1-0.8c0.2-0.4,0.3-0.9,0.2-1.6  c0-0.2,0-0.4,0-0.5c-0.3-0.8-0.7-1.3-1.2-1.6c-0.5-0.2-0.9-0.3-1.5,0c0,0-0.2,0-0.4,0.2L112.3,144.8L112.3,144.8z"/>	<path class="st1" d="M124.2,149.6c-0.3-0.7-0.5-1.3-0.4-2l0,0v0.2c0.3,0.7,0.8,1.1,1.5,1.4s1.5,0.2,2.3-0.2  c0.6-0.3,1.1-0.7,1.3-1.2s0.2-0.9,0-1.4c-0.1-0.3-0.3-0.5-0.6-0.6s-0.7-0.2-1.2-0.3l-3.3-0.5c-1.2-0.2-2-0.7-2.5-1.6  c0,0,0-0.2,0-0.3c-0.3-0.8-0.3-1.5,0-2.2s0.9-1.3,1.8-1.7c0.5-0.3,1.2-0.5,2-0.8l0.9-0.4l0.8,2.2l0,0c-0.2-0.4-0.6-0.7-1.1-0.9  c-0.5-0.1-1.1,0-1.7,0.3c-0.7,0.4-1.2,0.8-1.3,1.5v0.8c0,0.2,0.2,0.4,0.4,0.5c0.3,0.2,0.7,0.3,1.2,0.4l3.6,0.5  c1.1,0.2,1.9,0.7,2.3,1.6c0.5,1,0.5,1.9,0,2.8c-0.4,0.9-1.2,1.6-2.4,2.1c-0.6,0.3-1.3,0.5-1.9,0.6s-1.1,0-1.5,0  c-0.2-0.1-0.3-0.4-0.4-0.6L124.2,149.6L124.2,149.6z"/></g><g>	<path class="st2" d="M117.8,44.8c0,0-4-2.6-9.2-8.6c-5.4-6.3-5.3-10.3-5.3-10.3s-0.3,0.1-0.8,0.3c-5.7,2.6-14.6,4.6-25,5.3  c-1.9,0.2-3.9,0.3-5.9,0.3h-9.3c-1.5,0-3-0.1-4.5-0.2c-11.4-0.7-21-2.8-26.9-5.7c0,0.1,0,4.1-5.3,10.3c-5.1,6-9.2,8.6-9.2,8.6  l1.4,3.1c3.1,6.9,6.1,14.2,6.3,21.5c0.1,4.9-1.3,11.1-2.5,16.2c-0.6,2.3-1.1,4.6-1.6,7c-1.3,7.1-2.7,17.8,2.5,26.3  c6.2,10.1,16.3,12.1,25.1,14.2c7.1,1.7,13,3.5,15.5,6.2s3.8,4.8,3.8,4.8s1.3-2.2,3.8-4.8s8.5-4.5,15.5-6.2  c8.8-2.1,18.9-4.1,25.1-14.2c5.2-8.5,3.9-19.2,2.5-26.3c-0.4-2.4-1-4.7-1.6-7c-1.2-5.1-2.6-11.3-2.5-16.2  c0.2-7.3,3.3-14.6,6.3-21.5l1.4-3.1C117.4,44.8,117.8,44.8,117.8,44.8z"/>	<path class="st3" d="M67.2,138.5c-4.9-5.3-12.1-7.1-19.1-8.7c-8.5-2-17.4-4.1-22.6-12.7C21.1,110,22.1,101,23.4,94  c0.4-2.4,1-4.8,1.6-7.1c1.3-5.5,2.7-11.3,2.6-17.2c-0.2-8.5-3.5-16.2-6.8-23.7c1.6-1.4,4.5-4,7.7-7.6c2.9-3.3,4.4-6.1,5.1-8  c14.7,4.7,25.2,4.8,31,4.9h5.3c5.8,0,16.3-0.2,31-4.9c0.7,1.9,2.2,4.7,5.1,8c3.1,3.6,6,6.2,7.7,7.6c-3.3,7.5-6.6,15.2-6.8,23.7  c-0.2,6,1.2,11.7,2.6,17.2c0.6,2.3,1.2,4.8,1.6,7.1c1.3,7,2.3,16-2.1,23.1c-5.3,8.6-14.1,10.7-22.6,12.7  C79.4,131.5,72.2,133.2,67.2,138.5L67.2,138.5L67.2,138.5z"/>	<path class="st4" d="M66.7,135.9c-5-4.4-11.7-6.1-18.3-7.6l0,0c-8.4-2-16.7-4-21.6-12l0,0c-2.2-3.7-3-7.9-3-12.1l0,0  c0-3.5,0.5-6.9,1.1-10l0,0c0.4-2.3,1-4.7,1.6-7l0,0c1.3-5.4,2.6-10.8,2.6-16.6l0,0v-1l0,0c-0.2-7.9-2.9-15-6.3-22.8l0,0l-0.2-0.4  l0.4-0.3c1.8-1.6,4.1-3.8,6.6-6.6l0,0c2.3-2.6,3.7-4.9,4.5-6.6l0,0l0.3-0.5l0.5,0.2c13.9,4.2,24,4.3,29.5,4.4h5.4  c5.6,0,15.6-0.2,29.5-4.4l0,0l0.5-0.2l0.2,0.5c0.9,1.8,2.3,4.1,4.5,6.6l0,0c2.5,2.8,4.8,5.1,6.6,6.6l0,0l0.4,0.3l-0.2,0.4  c-3.4,7.7-6.1,14.9-6.3,22.8l0,0v1l0,0c0,5.8,1.3,11.2,2.6,16.6l0,0c0.6,2.3,1.1,4.7,1.6,7l0,0c0.6,3,1.1,6.5,1.1,10l0,0  c0,4.2-0.7,8.4-3,12.1l0,0c-4.9,8.1-13.2,10-21.6,12l0,0c-6.6,1.6-13.3,3.2-18.3,7.6l0,0l-0.4,0.4l-0.4-0.4  C66.6,135.9,66.7,135.9,66.7,135.9z M67.2,135.4l0.4-0.5L67.2,135.4L67.2,135.4z M30.5,69.5v1.1l0,0c0,6-1.4,11.6-2.7,16.9l0,0  c-0.6,2.3-1.1,4.7-1.6,6.9l0,0c-0.6,3-1.1,6.4-1.1,9.7l0,0c0,4,0.7,8,2.8,11.4l0,0c4.6,7.5,12.3,9.4,20.8,11.4l0,0  c6.4,1.5,13.1,3.1,18.4,7.5l0,0c5.3-4.4,12-6,18.4-7.5l0,0c8.5-2,16.2-3.9,20.8-11.4l0,0c2.1-3.4,2.8-7.4,2.8-11.4l0,0  c0-3.4-0.5-6.7-1.1-9.7l0,0c-0.4-2.3-1-4.7-1.6-7l0,0c-1.3-5.4-2.7-10.9-2.7-16.9l0,0v-1.1l0,0c0.2-8.1,2.9-15.2,6.2-22.8l0,0  c-1.8-1.6-4-3.7-6.3-6.4l0,0c-2.1-2.4-3.5-4.6-4.5-6.4l0,0c-13.8,4.1-23.9,4.2-29.4,4.3h-5.3c-5.5,0-15.6-0.2-29.4-4.3l0,0  c-0.9,1.8-2.4,4-4.5,6.4l0,0c-2.4,2.7-4.6,4.9-6.3,6.4l0,0c3.3,7.6,6,14.8,6.2,22.8l0,0L30.5,69.5z"/>	<path class="st1" d="M54.6,80c1.1-0.8,2.1-1.7,3-2.7s1.6-2.1,2.2-3.2c0.6-1.2,0.8-2.4,0.8-3.6s0-1.3-0.2-1.8c0-0.5-0.3-1-0.6-1.6  s-0.7-1.2-1.2-1.8c-0.5-0.7-1.1-1.5-1.9-2.5c-1-1.3-1.9-2.7-2.7-4.2s-1.2-3.2-1.2-4.9s0.7-4.1,2.2-5.5s3.4-2.1,5.7-2.1  s3.8,0.5,4.9,1.4c1,0.9,1.5,1.9,1.5,3s0,1-0.3,1.3c0.2,0.3,0.4,0.4,0.6,0.3c0.2-0.6,0.4-1.4,0.7-2.4c0.3-0.9,0.6-1.7,0.8-2.3  c0-0.4,0-0.8-0.4-1.2c-0.7-0.8-1.5-1.3-2.4-1.5c-0.9-0.3-1.8-0.4-2.7-0.4c-1.4,0-2.7,0.2-3.8,0.5c-1.1,0.4-2.1,0.8-3,1.2  c-0.9,0.5-1.6,1-2.2,1.5c-0.6,0.6-1.1,1-1.4,1.4c-1,1.2-1.8,2.5-2.5,4s-1,3-1,4.6s0.3,2.9,0.9,4c0.6,1.2,1.5,2.5,2.7,4  c1.3,1.7,2.3,3.1,2.7,4.1c0.5,1,0.7,2,0.7,3c0,2-0.6,3.8-1.9,5.3c-1.3,1.5-2.8,2.6-4.6,3.5c-0.9,0.4-1.9,0.7-2.9,0.9  c-1.1,0.2-2.2,0.3-3.2,0.3c-2.8,0-4.9-0.6-6.2-1.9s-2-2.7-2-4.3s0-1.1,0.3-1.6c0-0.3,0-0.4-0.3-0.4s-0.3,0-0.3,0.2  c-0.2,0.8-0.5,1.9-0.8,3.1c-0.3,1.3-0.6,2.4-0.8,3.4c0,0.2,0.2,0.3,0.4,0.5c0.2,0,0.5,0.3,0.8,0.5c1.1,0.5,2.3,0.9,3.6,1.1  s2.6,0.3,4,0.3c3.2,0,6.1-0.6,8.8-1.8c1.1-0.5,2.1-1.1,3.2-1.9C54.6,79.8,54.6,80,54.6,80z M62.1,66.1c0,0.2,0,0.4,0.4,0.4  s0.8,0,1.8,0c1,0,1.9-0.2,2.6-0.2c-2.1,3.3-3.6,6.1-4.7,8.4c-1.1,2.3-1.6,4-1.6,5.2s0.4,2.3,1.1,2.9c0.7,0.6,1.5,0.8,2.5,0.8  c1.8,0,3.5-0.3,5.2-0.9s3.5-1.5,5.5-2.8c0.2,0,0.4-0.4,0.3-0.6s-0.4,0-0.7,0c-1.3,0.8-2.6,1.5-3.8,2c-1.2,0.5-2.3,0.7-3.2,0.7  c-1.9,0-2.9-1.1-2.9-3.2s0.4-3.3,1.3-5.4c0.9-2,2.1-4.5,3.8-7.5c0.9,0,1.9,0,3.1-0.2c1.2,0,2.3,0,3.4-0.2c1.1,0,2.1,0,3.1,0h2.1  c0,0,0.3,0,0.3-0.3s-0.2-0.3-0.4-0.3H70.4c1.2-2,2.4-4.1,3.6-6.1c1.3-2,2.3-3.6,3.6-5.5c0.3-0.7,0.9-1.2,1.5-1.5s1.4-0.6,1.7-0.7  c0.2,0,0.3-0.2,0.3-0.4s0-0.2-0.3-0.2c-0.9,0.3-1.9,0.7-3,1.1c-1.1,0.5-2,0.8-2.7,1.1c-0.5,0.9-1.1,1.8-1.8,2.9  c-0.7,1-1.3,2.1-2,3.2c-0.6,1.1-1.3,2.2-1.9,3.3s-1.2,2.1-1.8,2.9h-4.5c-0.5,0.5-0.9,0.9-1.1,1.3h0.1L62.1,66.1z M77.8,75.1  c-0.2,0-0.5,0.2-0.7,0.3c-0.2,0-0.5,0.2-0.7,0.3c-0.2,0-0.3,0.2-0.3,0.3c0,0,0,0.7,0,1.6c0,0.8,0.3,1.3,0.4,1.5s0.3,0.2,0.5,0.2  c0.5,0,1,0,1.5-0.3c0.5-0.2,0.8-0.5,0.8-0.7c0-1.9,0-3-0.4-3.2c0,0-0.2,0-0.3,0c-0.2,0-0.4,0-0.6,0C78,75.1,77.8,75.1,77.8,75.1z   M101.6,102.9c0,0-0.2,0-0.3,0c-0.2,0-0.4,0-0.6,0s-0.5,0.2-0.7,0.3c-0.2,0-0.5,0.2-0.7,0.3c-0.2,0-0.3,0.2-0.3,0.3  c0,0,0,0.7,0,1.6c0,0.8,0.3,1.3,0.4,1.5s0.3,0.2,0.5,0.2c0.5,0,1,0,1.5-0.3c0.5-0.2,0.8-0.5,0.8-0.7c0-1.9,0-3-0.4-3.2  C101.8,102.9,101.6,102.9,101.6,102.9z M97.3,107.2c-0.5,0-0.9,0.2-1.4,0.3c-0.4,0-1.3,0.2-1.8,0s-0.6-0.2-0.9-0.5  c-0.6-0.6-0.8-1.4-1-2.6c0-0.6-0.2-2.1,0-3.4c0-0.7,0.2-1.8,0.4-3.5c0-0.6,0-1.2,0.2-1.8c2.5,0,4.4-0.4,5.6-1.2  c2.6-1.8,1.5-4.5,1.1-4.7c-0.3-0.3-0.7,0-0.3,0.6c0.3,0.7,0.4,2.3-0.9,3.1c-1,0.6-2.4,1.1-5.3,1c0-0.8,0.2-1.7,0.4-2.6  c0.3-2.1,0.7-4.3,1.1-6.6c0.4-2.3,0.7-4.4,1.1-6.4c0.3-2,0.6-3.7,0.9-5c0.3-1.4,0.4-2.2,0.5-2.4c0-0.8,0.3-1.8,0.7-3  c0.4-1.2,0.8-2.3,1.3-3.3s0.2-0.4,0.3-0.6c0-0.2,0.2-0.6,0.2-0.7c0-0.2-0.2-0.2-0.6,0.2c-0.9,1.2-2.4,1.6-2.8,1.6s-1.2,0.5-2.4,2  C92.6,69,86.1,76.8,78.2,87c-1.8,2.3-3.5,4.5-5.3,6.5h-4c-13.7,0-21.5,3.8-25.9,8.1c-5,4.8-7,12.3-2.6,16.6s12.9,0,18.5-5.4  c2.3-2.2,3.5-3.6,5.1-5.5c2.3-2.4,5.5-6.2,10.4-12.5h2.8c4.6,0.2,8.7,0.5,12.1,0.7v0.3c-0.2,1.2-0.4,2.5-0.5,3.8  c-0.2,1.3-0.4,2.6-0.5,3.8c-0.2,1.2-0.6,4-0.4,4.8c0.2,1.2,0.9,1.7,1.8,1.7s3.3-0.8,4.1-1c0.8-0.2,3.6-1.1,4-1.3s0.7-0.4,0.7-0.5  s-0.3-0.2-0.8,0L97.3,107.2L97.3,107.2z M59.6,108.2c-3.1,2.9-7,5.9-10,7.1c-6.5,2.6-9.4-1.5-8.3-6.3c1.2-4.7,5.8-11,17.9-13.1  c0,0,4.4-0.9,12.5-1c-4.8,5.6-9.2,10.2-12.2,13.2h0.1L59.6,108.2z M91,83.8c-0.3,2.1-0.6,3.7-0.9,4.9l-0.7,4.8c0,0.2,0,0.5,0,1  c-4.2,0-8.4-0.5-14.2-0.7c9-11.7,14.9-19.3,18.2-23.6c0,0.5-0.2,1.1-0.3,2c-0.3,1.6-0.6,3.4-0.9,5.4c-0.3,2.1-0.7,4.1-1,6.2l0,0  L91,83.8z"/>	<g>		<path class="st2" d="M67.2,13.9c-1.2,0-2.4,0.2-3.4,0.6c0.5,1,0.6,3.3,0.7,4.1c0,1.2-0.3,3.6,2.1,3.8l0.6,2.2h0.2l0.6-2.2   c2.4-0.2,2-2.6,2.1-3.8c0-0.7,0.2-3.1,0.7-4.1c-1.1-0.4-2.2-0.6-3.4-0.6H67.2L67.2,13.9z"/>		<path class="st2" d="M63.5,13.8c1.1-0.4,2.4-0.7,3.6-0.7s2.5,0.2,3.7,0.7c0.4-0.8,1-1.4,1.9-1.4c0.2-0.7-0.6-1.6-1.1-2.2   c-0.6-0.7-4.5-4.9-4.5-6.5l0,0c0,1.6-3.9,5.8-4.5,6.5c-0.5,0.5-1.3,1.5-1.1,2.2C62.4,12.4,63,13,63.5,13.8L63.5,13.8L63.5,13.8z"/>		<path class="st2" d="M63.4,20.6h0.3c-1.4-3.3-4.9-5.3-8.4-5.3v1.5c3.1-0.3,6.5,0.9,8,3.7l0,0L63.4,20.6z"/>		<path class="st2" d="M78.9,16.8v-1.5c-3.5,0-6.9,1.9-8.3,5.2h0.3c1.6-2.8,4.9-3.9,8-3.6l0,0V16.8z"/>		<g>			<path class="st2" d="M80.7,21.9c-0.8-1.2-2.5-2.3-4.5-2.4c-2,0-3.9,0.7-5.2,2c-1.3,1.3-1.9,2.8-2,3.9v1l0,0c0-0.3,0-0.6,0.2-1    c0.3-1,1.1-2.3,2.3-3.3c1.2-0.9,3-1.4,4.5-1.2c1.5,0.2,2.7,1.1,3.2,2c0.6,0.8,1.2,2.2,0.9,3.6c-0.2,1.4-1.5,2.7-3,2.9    c-1.5,0.3-2.7-0.5-3.2-1.4c-0.5-0.8-0.4-1.5-0.5-1.5c0,0-0.2,0.6,0.2,1.7c0.4,1,1.7,2.3,3.6,2.1c1.8,0,3.8-1.5,4.4-3.5    s0-3.9-0.9-5.1C80.7,21.7,80.7,21.9,80.7,21.9z"/>			<path class="st2" d="M58.3,21c1.5-0.2,3.3,0.2,4.5,1.2c1.3,0.9,2,2.2,2.3,3.3c0,0.4,0.2,0.7,0.2,1l0,0v-1c0-1.1-0.7-2.6-2-3.9    c-1.3-1.3-3.3-2.1-5.2-2c-2,0-3.7,1.2-4.5,2.4c-0.9,1.1-1.5,3.1-0.9,5.1s2.5,3.4,4.4,3.5c1.9,0.2,3.3-1.1,3.6-2.1    c0.4-1,0.2-1.7,0.2-1.7s0,0.7-0.5,1.5s-1.8,1.7-3.2,1.4c-1.5-0.2-2.8-1.5-3-2.9c-0.3-1.4,0.3-2.8,0.9-3.6c0.6-0.8,1.7-1.7,3.2-2    C58.3,21.2,58.3,21,58.3,21z"/>		</g>		<path class="st2" d="M62.5,27.8v1.6h9.2v-1.6C71.7,27.8,62.5,27.8,62.5,27.8z"/>		<path class="st2" d="M62.8,30c0.4,0.5,0.9,0.8,1.5,0.8h5.4c0.6,0,1.2-0.3,1.5-0.8H62.8L62.8,30L62.8,30z"/>		<path class="st2" d="M62.8,27.3c0.4-0.5,0.9-0.8,1.5-0.8h5.4c0.6,0,1.2,0.3,1.5,0.8H62.8L62.8,27.3L62.8,27.3z"/>	</g></g></svg>