<?xml version="1.0" standalone="no"?>
<!DOCTYPE svg PUBLIC "-//W3C//DTD SVG 1.1//EN" "http://www.w3.org/Graphics/SVG/1.1/DTD/svg11.dtd">
<svg xmlns="http://www.w3.org/2000/svg" id="Camada_1" data-name="Camada 1" viewBox="0 0 877.3 138.1" width="877.2999877929688" height="138.10000610351562"><defs><style>      .cls-1, .cls-2 {        fill: #fff;      }      .cls-2 {        fill-rule: evenodd;      }    </style></defs><g><path class="cls-1" d="M773.32,128.04c.79,0,1.38.59,1.38,1.18v5.53c0,.79-.59,1.38-1.38,1.38h-80.69c-.79,0-1.38-.59-1.38-1.38v-3.16c0-18.35,3.16-26.63,12.04-35.91,12.63-13.22,30.58-18.94,45.18-29.59,8.88-6.51,15.19-14.4,15.19-27.23,0-7.89-2.56-15.19-7.3-20.52-5.72-6.51-14.6-10.46-25.65-10.46-14.4,0-24.46,5.72-32.36,11.25-.99.59-1.77.79-2.37-.2l-2.37-4.93c-.59-.98-.59-1.38.59-2.17,9.47-6.12,20.12-11.84,37.09-11.84,13.02,0,24.86,4.73,32.35,13.22,5.72,6.31,9.08,14.99,9.08,25.45,0,15.59-7.5,25.06-17.76,32.95-14.6,10.85-32.16,16.57-44.59,29-6.91,6.71-9.07,13.22-9.07,27.42h72.01Z"/><path class="cls-1" d="M877.3,102.19c0,23.08-17.17,35.91-45.97,35.91s-45.97-12.63-45.97-35.91c0-21.9,21.7-31.76,36.1-37.09-14.4-5.72-31.37-14.8-31.37-32.95,0-22.49,19.14-32.15,41.04-32.15,19.93,0,41.43,9.27,41.43,32.75,0,17.96-17.16,26.44-31.76,32.36,16.77,6.71,36.5,15.98,36.5,37.09ZM830.74,69.05c-17.16,5.32-36.1,14.2-36.1,32.55s12.43,29.2,36.7,29.2,36.89-11.05,36.89-29-19.34-27.03-37.49-32.75ZM831.33,7.49c-15.78,0-31.76,5.72-31.76,24.46,0,16.97,18.35,24.66,31.96,29.59,15.78-5.52,31.76-13.81,31.76-28.41,0-18.15-15.19-25.65-31.96-25.65Z"/></g><g><g><path class="cls-1" d="M117.19,1.87c1.97,0,3.55,1.58,3.55,3.55v127.25c0,1.97-1.58,3.55-3.55,3.55h-27.62c-1.97,0-3.55-1.58-3.55-3.55v-48.73h-51.29v48.73c0,1.97-1.58,3.55-3.55,3.55H3.55c-1.97,0-3.55-1.58-3.55-3.55V5.42C0,3.45,1.58,1.87,3.55,1.87h27.62c1.97,0,3.55,1.58,3.55,3.55v47.74h51.29V5.42c0-1.97,1.58-3.55,3.55-3.55h27.62Z"/><path class="cls-1" d="M423.79,1.87c1.97,0,3.55,1.58,3.55,3.55v23.68c0,1.97-1.58,3.55-3.55,3.55h-37.88v100.03c0,1.97-1.58,3.55-3.55,3.55h-27.62c-1.97,0-3.55-1.58-3.55-3.55V32.65h-37.88c-1.97,0-3.55-1.58-3.55-3.55V5.42c0-1.97,1.58-3.55,3.55-3.55h110.48Z"/><path class="cls-1" d="M542.17,1.87c1.97,0,3.55,1.58,3.55,3.55v23.68c0,1.97-1.58,3.55-3.55,3.55h-65.5v20.52h55.04c1.97,0,3.55,1.58,3.55,3.55v23.68c0,1.97-1.58,3.55-3.55,3.55h-55.04v21.51h65.5c1.97,0,3.55,1.58,3.55,3.55v23.68c0,1.97-1.58,3.55-3.55,3.55h-96.67c-1.97,0-3.55-1.58-3.55-3.55V5.42c0-1.97,1.58-3.55,3.55-3.55h96.67Z"/><path class="cls-1" d="M597.22,1.87c1.97,0,3.55,1.58,3.55,3.55v100.03h51.89c1.97,0,3.55,1.58,3.55,3.55v23.68c0,1.97-1.58,3.55-3.55,3.55h-83.06c-1.97,0-3.55-1.58-3.55-3.55V5.42c0-1.97,1.58-3.55,3.55-3.55h27.62Z"/></g><path class="cls-2" d="M219.82.24c-45.6,0-82.57,36.96-82.57,82.56,0,14.42,3.71,27.98,10.21,39.77,11.34-14.94,59.68-71.49,145.62-77.82C279.32,18.31,251.69.24,219.82.24M302.37,82.8c0,20.38-7.4,39.03-19.65,53.43-110.79-60.17-16.71-85,10.79-90.62,5.65,11.18,8.86,23.81,8.86,37.19"/></g></svg>