<svg width="1359" height="874" viewBox="0 0 1359 874" fill="none" xmlns="http://www.w3.org/2000/svg">
<rect width="1359" height="874" rx="289" fill="#1D2C5C"/>
<mask id="mask0_6_71" style="mask-type:luminance" maskUnits="userSpaceOnUse" x="149" y="208" width="983" height="473">
<path d="M1132 208.341H149.785V680.001H1132V208.341Z" fill="white"/>
</mask>
<g mask="url(#mask0_6_71)">
<path d="M673.304 208.341V326.043C679.628 317.863 684.457 308.501 690.625 300.223C726.543 252.098 781.591 218.919 840.137 210.674C910.477 200.753 983.451 225.423 1032.78 278.016L974.649 337.869C955.452 320.13 933.298 305.545 908.059 298.942C781.209 265.731 679.183 408.431 748.122 523.603C753.588 532.735 760.264 539.962 766.336 548.536C699.905 554.679 632.269 549.521 567.781 532.341V208.341H673.334H673.304Z" fill="white"/>
<path d="M284.931 388.293C470.011 585.886 778.857 627.934 1010.09 492.395C1013.43 489.57 1011.26 484.61 1008.09 482.803L906.089 427.615C902.592 423.968 904.213 416.873 909.235 415.854L1094.92 440.557C1098.03 440.886 1101.63 444.171 1101.66 447.489L1036.25 644.39C1030.81 645.739 1025.85 643.635 1025.54 637.525C1025.09 629.938 1027.31 617.618 1027.63 609.572C1028.49 586.246 1030.27 562.564 1030.78 539.37C1030.91 533.096 1031.7 519.923 1030.71 514.536C1030.34 512.499 1029.19 510.955 1027.12 510.758C1004.24 523.997 981.737 537.859 957.992 549.455C684.68 682.727 341.253 613.348 149.785 369.766L229.595 319.637C247.235 343.19 264.876 366.875 284.963 388.293H284.931Z" fill="white"/>
<path d="M413.117 208.341V466.411C374.595 443.383 339.505 414.574 307.562 382.709V208.341H413.117Z" fill="white"/>
<path d="M1010.85 544.167C1010.63 546.171 1009.83 547.977 1009.74 550.047C1008.78 578.2 1007.77 606.452 1006.43 634.669C985.55 649.584 962.951 662.1 938.476 669.721C868.139 691.663 795.703 677.767 736.012 634.864L736.52 632.729C810.102 626.159 882.252 605.762 949.888 575.704L1010.85 544.2V544.167Z" fill="white"/>
<path d="M413.117 588.45V674.846H307.562V536.612L366.743 568.87C382.159 575.474 397.129 583.26 413.085 588.45H413.117Z" fill="white"/>
<path d="M673.304 637.034V674.846H567.747V629.479C602.582 635.489 638.021 635.853 673.304 637.034Z" fill="white"/>
</g>
</svg>
