<svg width="2234" height="472" viewBox="0 0 2234 472" fill="none" xmlns="http://www.w3.org/2000/svg">
<mask id="mask0_3_50" style="mask-type:luminance" maskUnits="userSpaceOnUse" x="0" y="0" width="2234" height="472">
<path d="M2233.98 0H0V471.66H2233.98V0Z" fill="white"/>
</mask>
<g mask="url(#mask0_3_50)">
<path d="M523.519 0V117.702C529.843 109.522 534.672 100.159 540.84 91.8814C576.757 43.7563 631.806 10.5777 690.352 2.33235C760.692 -7.58834 833.666 17.082 882.995 69.6749L824.864 129.527C805.666 111.789 783.513 97.2032 758.274 90.6003C631.424 57.3891 529.398 200.089 598.336 315.261C603.803 324.394 610.479 331.621 616.551 340.194C550.12 346.337 482.483 341.18 417.995 323.999V0H523.549H523.519Z" fill="#1D2C5C"/>
<path d="M135.146 179.952C320.226 377.544 629.072 419.592 860.303 284.053C863.641 281.229 861.479 276.268 858.3 274.461L756.304 219.273C752.807 215.627 754.427 208.532 759.449 207.513L945.134 232.216C948.25 232.545 951.84 235.83 951.873 239.148L886.462 436.049C881.025 437.398 876.066 435.294 875.751 429.183C875.306 421.597 877.528 409.277 877.847 401.23C878.707 377.905 880.484 354.222 880.995 331.029C881.121 324.755 881.915 311.582 880.929 306.194C880.55 304.158 879.404 302.614 877.338 302.417C854.454 315.655 831.952 329.518 808.207 341.114C534.894 474.386 191.468 405.006 0 161.425L79.81 111.295C97.4502 134.849 115.09 158.534 135.178 179.952H135.146Z" fill="#1D2C5C"/>
<path d="M263.332 0V258.069C224.81 235.042 189.72 206.232 157.777 174.368V0H263.332Z" fill="#1D2C5C"/>
<path d="M861.064 335.826C860.841 337.829 860.047 339.636 859.951 341.706C858.998 369.859 857.981 398.11 856.646 426.327C835.765 441.243 813.166 453.759 788.691 461.379C718.354 483.321 645.918 469.426 586.226 426.523L586.734 424.388C660.316 417.818 732.467 397.42 800.103 367.363L861.064 335.858V335.826Z" fill="#1D2C5C"/>
<path d="M263.332 380.109V466.504H157.777V328.271L216.959 360.528C232.374 367.133 247.345 374.918 263.3 380.109H263.332Z" fill="#1D2C5C"/>
<path d="M523.518 428.692V466.504H417.962V421.137C452.796 427.148 488.235 427.512 523.518 428.692Z" fill="#1D2C5C"/>
<path d="M2021.38 70.3656L2060.54 189.874L2094.29 72.1393C2097.06 68.263 2119.34 71.1211 2125.28 70.5297L2158.37 191.713L2196.64 70.3656H2234.01L2172.7 261.717L2143.46 261.388L2111.23 145.756C2106.62 145.231 2108.4 145.756 2107.64 148.45C2096.96 186.096 2087.33 224.103 2075.41 261.355C2068.96 260.83 2048.27 263.819 2044.48 259.811L1984.92 70.3986H2021.41L2021.38 70.3656Z" fill="#1D2C5C"/>
<path d="M1602.37 225.713C1601.51 228.834 1581.04 246.441 1576.91 249.037C1498.97 298.41 1397.39 220.26 1431.81 130.35C1459.05 59.1965 1554.69 43.56 1600.46 104.102L1576.56 129.134C1551.51 90.1084 1491.5 93.5247 1469.25 134.127C1440.43 186.753 1492.14 245.193 1546.65 225.122C1562.19 219.406 1572.33 212.146 1568.55 193.52H1529.39V162.28H1602.33V225.713H1602.37Z" fill="#1D2C5C"/>
<path d="M1073.92 70.3647V145.756H1146.87L1145.44 74.5366C1144.77 73.0584 1147.12 70.3974 1147.76 70.3974H1182.47V258.858C1182.47 259.055 1179.99 261.617 1179.8 261.617H1147.76C1143.79 261.617 1146.87 257.314 1146.87 257.018V177.029H1073.92V261.617H1038.32V70.3647H1073.92Z" fill="#1D2C5C"/>
<path d="M1294.16 67.1788C1219.75 76.0153 1182.34 168.455 1231.38 228.472C1280.23 288.259 1379.43 269.535 1400.79 193.914C1420.81 123.122 1363.6 58.9333 1294.16 67.1788ZM1366.62 182.515C1351.68 236.882 1280.2 246.08 1253.34 196.608C1231.86 157.056 1256.17 106.993 1299.49 102.131C1342.97 97.2692 1378.77 138.299 1366.62 182.515Z" fill="#1D2C5C"/>
<path d="M1868.88 67.2112C1799.84 74.9308 1759.73 155.742 1797.33 217.27C1838.52 284.711 1941.03 277.944 1970.97 203.966C2000.15 131.893 1942.08 59.0313 1868.88 67.2112ZM1847.33 218.945C1798.92 187.771 1816.27 109.949 1872.37 102.098C1904.22 97.6302 1938.26 122.432 1942.01 156.037C1948.12 211.094 1892.91 248.313 1847.33 218.945Z" fill="#1D2C5C"/>
<path d="M1741.49 190.433C1740.37 183.074 1726.71 178.672 1725.15 176.964C1722.35 173.942 1732.11 171.314 1734.65 169.343C1772.6 139.778 1759.98 77.0343 1711.8 70.3658C1686.82 66.8837 1654.84 72.961 1629.07 70.3658V258.826C1629.07 259.023 1631.55 261.586 1631.74 261.586H1664.66V187.114C1664.66 181.891 1692.06 186.917 1696.51 189.151C1716.76 199.269 1720.57 241.711 1728.74 261.586H1767.9L1741.55 190.433H1741.49ZM1708.97 152.031C1707.83 152.754 1698.16 156.761 1697.53 156.761H1664.6V97.9267H1699.31C1702.14 97.9267 1712.05 105.285 1714.41 108.045C1725.53 121.086 1723.66 142.833 1708.94 152.031H1708.97Z" fill="#1D2C5C"/>
<path d="M1417.32 295.092C1409.28 303.6 1405.97 315.065 1392.43 311.615C1391.8 311.024 1399.08 295.847 1399.81 295.387C1402.38 293.712 1413.31 295.946 1417.32 295.092Z" fill="#1D2C5C"/>
<path d="M1056.15 322.227V353.467H1088.16V322.227H1105.96V401.296H1088.16V368.183H1056.15V401.296H1038.36V322.227H1056.15Z" fill="#1D2C5C"/>
<path d="M1588.13 346.107C1583.65 345.551 1577.38 347.226 1573.28 345.812C1569.63 344.563 1569.76 338.52 1566.71 336.089C1559.01 329.978 1540.17 333.888 1543.95 346.667C1547.35 358.132 1585.27 347.916 1589.49 373.209C1595.95 411.711 1522.81 414.766 1524.08 375.543C1527.48 376.233 1540.23 374.424 1541.69 375.739C1542.17 376.164 1542.45 382.57 1545.35 385.759C1553.42 394.561 1577.13 390.585 1571.85 374.918C1568.2 364.143 1528.85 374.819 1526.28 348.342C1522.75 312.371 1587.4 309.94 1588.16 346.107H1588.13Z" fill="#1D2C5C"/>
<path d="M1420.88 322.227V336.944H1381.75V355.307H1417.32V368.183H1381.75V386.58H1420.88V401.296H1363.95V322.227H1420.88Z" fill="#1D2C5C"/>
<path d="M1323.02 322.227L1323.05 336.944H1299.91V401.296H1282.11V336.944H1260.75V322.227H1323.02Z" fill="#1D2C5C"/>
<path d="M1481.4 322.227H1463.6V401.296H1481.4V322.227Z" fill="#1D2C5C"/>
<path d="M1178.46 320.879C1136.38 327.021 1137.01 398.045 1179.99 402.906C1241.36 409.871 1240.41 311.812 1178.46 320.879ZM1193.27 387.595C1157.32 396.565 1156.4 340.49 1180.21 335.497C1214.95 328.237 1214.95 382.175 1193.27 387.595Z" fill="#1D2C5C"/>
</g>
</svg>
